<?xml version="1.0" encoding="UTF-8" standalone="no"?><svg xmlns="http://www.w3.org/2000/svg" xmlns:xlink="http://www.w3.org/1999/xlink" contentStyleType="text/css" height="392px" preserveAspectRatio="none" style="width:303px;height:392px;background:#FFFFFF;" version="1.1" viewBox="0 0 303 392" width="303px" zoomAndPan="magnify"><defs/><g><!--MD5=[c0bd9f44073f1a51428d87d6a9cf071b]
class Observable--><g id="elem_Observable"><rect codeLine="2" fill="#F1F1F1" height="67.0679" id="Observable" rx="2.5" ry="2.5" style="stroke:#181818;stroke-width:0.5;" width="241" x="55" y="7"/><ellipse cx="135.75" cy="23" fill="#B4A7E5" rx="11" ry="11" style="stroke:#181818;stroke-width:1.0;"/><path d="M132.1719,27.3438 L134.6406,27.3438 L134.6406,19.2656 L132.1719,19.2656 L132.1719,17.1094 L139.5625,17.1094 L139.5625,19.2656 L137.0938,19.2656 L137.0938,27.3438 L139.5625,27.3438 L139.5625,29.5 L132.1719,29.5 L132.1719,27.3438 Z " fill="#000000"/><text fill="#000000" font-family="sans-serif" font-size="14" font-style="italic" lengthAdjust="spacing" textLength="71" x="156.25" y="28.432">Observable</text><line style="stroke:#181818;stroke-width:0.5;" x1="56" x2="295" y1="39" y2="39"/><line style="stroke:#181818;stroke-width:0.5;" x1="56" x2="295" y1="47" y2="47"/><text fill="#000000" font-family="sans-serif" font-size="14" lengthAdjust="spacing" textLength="229" x="61" y="65.9659">subscribe(Observer): Subscription</text></g><!--MD5=[d40932010816485ec57b44b6eea2392a]
class Observer--><g id="elem_Observer"><rect codeLine="6" fill="#F1F1F1" height="124.2717" id="Observer" rx="2.5" ry="2.5" style="stroke:#181818;stroke-width:0.5;" width="189" x="7" y="134.07"/><ellipse cx="68.75" cy="150.07" fill="#B4A7E5" rx="11" ry="11" style="stroke:#181818;stroke-width:1.0;"/><path d="M65.1719,154.4138 L67.6406,154.4138 L67.6406,146.3356 L65.1719,146.3356 L65.1719,144.1794 L72.5625,144.1794 L72.5625,146.3356 L70.0938,146.3356 L70.0938,154.4138 L72.5625,154.4138 L72.5625,156.57 L65.1719,156.57 L65.1719,154.4138 Z " fill="#000000"/><text fill="#000000" font-family="sans-serif" font-size="14" font-style="italic" lengthAdjust="spacing" textLength="57" x="89.25" y="155.502">Observer</text><line style="stroke:#181818;stroke-width:0.5;" x1="8" x2="195" y1="166.07" y2="166.07"/><text fill="#000000" font-family="sans-serif" font-size="14" lengthAdjust="spacing" textLength="177" x="13" y="185.0359">subscription: Subscription</text><line style="stroke:#181818;stroke-width:0.5;" x1="8" x2="195" y1="193.1379" y2="193.1379"/><text fill="#000000" font-family="sans-serif" font-size="14" lengthAdjust="spacing" textLength="86" x="13" y="212.1039">onNext(item)</text><text fill="#000000" font-family="sans-serif" font-size="14" lengthAdjust="spacing" textLength="93" x="13" y="231.1718">onError(error)</text><text fill="#000000" font-family="sans-serif" font-size="14" lengthAdjust="spacing" textLength="98" x="13" y="250.2397">onCompleted()</text></g><!--MD5=[545507b7baa8aade59e57dce916f0187]
class Subscription--><g id="elem_Subscription"><rect codeLine="13" fill="#F1F1F1" height="67.0679" id="Subscription" rx="2.5" ry="2.5" style="stroke:#181818;stroke-width:0.5;" width="110" x="120.5" y="318.34"/><ellipse cx="135.5" cy="334.34" fill="#B4A7E5" rx="11" ry="11" style="stroke:#181818;stroke-width:1.0;"/><path d="M131.9219,338.6838 L134.3906,338.6838 L134.3906,330.6056 L131.9219,330.6056 L131.9219,328.4494 L139.3125,328.4494 L139.3125,330.6056 L136.8438,330.6056 L136.8438,338.6838 L139.3125,338.6838 L139.3125,340.84 L131.9219,340.84 L131.9219,338.6838 Z " fill="#000000"/><text fill="#000000" font-family="sans-serif" font-size="14" font-style="italic" lengthAdjust="spacing" textLength="78" x="149.5" y="339.772">Subscription</text><line style="stroke:#181818;stroke-width:0.5;" x1="121.5" x2="229.5" y1="350.34" y2="350.34"/><line style="stroke:#181818;stroke-width:0.5;" x1="121.5" x2="229.5" y1="358.34" y2="358.34"/><text fill="#000000" font-family="sans-serif" font-size="14" lengthAdjust="spacing" textLength="92" x="126.5" y="377.3059">unsubscribe()</text></g><!--MD5=[8e2a9fffec268e9f5174791eb82aa096]
link Observable to Observer--><g id="link_Observable_Observer"><path codeLine="17" d="M159.63,74.5 C152.08,90.17 142.78,109.49 133.84,128.05 " fill="none" id="Observable-to-Observer" style="stroke:#181818;stroke-width:1.0;"/><polygon fill="#181818" points="131.74,132.41,139.2538,126.0427,133.9129,127.9069,132.0488,122.566,131.74,132.41" style="stroke:#181818;stroke-width:1.0;"/></g><!--MD5=[3a1e306a48b8d95a14b8450091ef0d97]
link Observer to Subscription--><g id="link_Observer_Subscription"><path codeLine="18" d="M131.17,258.82 C139.84,276.82 149.06,295.98 156.84,312.13 " fill="none" id="Observer-to-Subscription" style="stroke:#181818;stroke-width:1.0;"/><polygon fill="#181818" points="158.98,316.57,158.6712,306.726,156.8071,312.0669,151.4662,310.2027,158.98,316.57" style="stroke:#181818;stroke-width:1.0;"/></g><!--MD5=[a8da664b5595b05b3571a32ebf9ec34d]
link Subscription to Observable--><g id="link_Subscription_Observable"><path codeLine="19" d="M192.66,318.02 C200.72,300.76 209.43,278.96 213.5,258.34 C224.19,204.16 224.19,188.26 213.5,134.07 C209.88,115.71 202.57,96.41 195.32,80.21 " fill="none" id="Subscription-to-Observable" style="stroke:#181818;stroke-width:1.0;"/><polygon fill="#181818" points="193.29,75.77,193.41,85.6181,195.3762,80.314,200.6804,82.2802,193.29,75.77" style="stroke:#181818;stroke-width:1.0;"/></g><!--MD5=[7ceb67920f2e1bdc314eb2fe911dd1c3]
@startuml

interface Observable {
    subscribe(Observer): Subscription
}

interface Observer {
    subscription: Subscription
    onNext(item)
    onError(error)
    onCompleted()
}

interface Subscription {
    unsubscribe()
}

Observable - -> Observer
Observer - -> Subscription
Subscription - -> Observable

@enduml

PlantUML version 1.2022.7(Mon Aug 22 19:01:30 CEST 2022)
(GPL source distribution)
Java Runtime: OpenJDK Runtime Environment
JVM: OpenJDK 64-Bit Server VM
Default Encoding: UTF-8
Language: en
Country: US
--></g></svg>